<?xml version="1.0" standalone="no"?>
<!DOCTYPE svg PUBLIC "-//W3C//DTD SVG 20010904//EN"
 "http://www.w3.org/TR/2001/REC-SVG-20010904/DTD/svg10.dtd">
<svg version="1.0" xmlns="http://www.w3.org/2000/svg"
 width="360.000000pt" height="355.000000pt" viewBox="0 0 360.000000 355.000000"
 preserveAspectRatio="xMidYMid meet">

<g transform="translate(0.000000,355.000000) scale(0.100000,-0.100000)"
fill="#000000" stroke="none">
<path d="M1420 3541 c-19 -11 -76 -31 -115 -40 -28 -8 -48 -16 -165 -70 -116
-54 -325 -189 -349 -225 -15 -22 -29 -35 -100 -96 -13 -11 -21 -20 -17 -20 4
0 -9 -16 -30 -35 -20 -19 -34 -35 -31 -35 3 0 -10 -17 -29 -37 -20 -21 -42
-52 -50 -70 -7 -17 -18 -34 -23 -38 -18 -10 -68 -91 -75 -119 -4 -16 -15 -47
-26 -70 -10 -22 -26 -68 -35 -101 -9 -33 -23 -78 -31 -100 -7 -22 -18 -61 -24
-87 -5 -27 -14 -67 -19 -90 -5 -24 -14 -95 -21 -159 -9 -95 -8 -139 5 -250 8
-74 22 -159 30 -189 8 -30 16 -68 19 -85 3 -16 10 -31 16 -33 5 -2 10 -11 10
-19 0 -70 164 -398 211 -424 11 -5 19 -15 19 -22 0 -8 14 -26 30 -42 16 -16
30 -32 30 -37 0 -4 8 -16 18 -26 10 -10 25 -27 33 -38 8 -10 37 -37 64 -59 28
-22 52 -43 53 -47 2 -5 8 -8 14 -8 5 0 31 -18 56 -41 26 -23 57 -45 69 -50 12
-4 52 -27 90 -50 101 -63 175 -99 201 -99 13 0 30 -7 38 -15 9 -8 24 -15 35
-15 11 0 30 -5 42 -12 27 -14 62 -21 242 -48 107 -17 166 -20 250 -16 132 6
248 22 275 36 10 5 30 10 43 10 30 0 122 26 160 46 16 8 39 14 52 14 12 0 25
7 29 15 3 8 14 15 24 15 11 0 25 7 32 15 7 8 20 15 29 15 21 0 131 68 131 81
0 5 6 9 13 9 19 0 108 88 96 95 -12 8 -99 -24 -99 -36 0 -5 -10 -9 -23 -9 -13
0 -32 -7 -43 -15 -10 -8 -28 -15 -39 -15 -12 0 -25 -4 -30 -9 -12 -11 -104
-36 -210 -58 -100 -20 -433 -22 -480 -3 -16 6 -50 16 -75 20 -66 13 -147 37
-194 58 -23 10 -59 26 -81 36 -48 21 -180 101 -216 130 -14 12 -45 37 -69 56
-108 88 -219 210 -253 279 -12 25 -32 55 -43 68 -12 13 -29 44 -39 70 -10 27
-21 50 -24 53 -12 9 -61 134 -61 154 0 10 -7 39 -15 65 -29 93 -40 197 -39
381 0 151 3 192 17 224 9 21 17 48 17 60 0 11 12 53 26 91 14 39 29 81 33 95
10 30 56 127 74 155 89 141 114 173 227 283 84 82 151 138 215 180 38 24 261
131 305 146 142 48 375 80 485 66 39 -5 102 -11 142 -13 39 -3 77 -8 84 -13 7
-4 29 -11 48 -15 37 -7 94 -26 121 -39 9 -4 30 -11 48 -14 17 -4 34 -12 37
-17 4 -5 19 -9 36 -9 16 0 29 -4 29 -10 0 -5 11 -10 25 -10 14 0 25 5 25 10 0
6 -3 10 -7 10 -5 0 -26 17 -48 37 -22 20 -66 52 -97 70 -31 18 -60 38 -63 43
-3 6 -16 10 -29 10 -13 0 -43 11 -67 25 -56 32 -53 30 -124 50 -33 9 -74 20
-91 26 -17 5 -113 8 -215 7 -184 -2 -184 -2 -64 -8 66 -4 154 -14 195 -23 41
-9 93 -20 115 -25 47 -10 136 -42 150 -54 5 -4 16 -8 25 -8 8 0 28 -7 44 -15
15 -8 34 -15 41 -15 14 0 55 -34 55 -45 0 -4 -6 -3 -12 3 -7 6 -31 13 -53 17
-22 4 -58 13 -80 20 -163 53 -423 55 -655 4 -111 -24 -158 -40 -212 -69 -10
-6 -23 -10 -29 -10 -12 0 -156 -85 -229 -134 -85 -58 -285 -253 -326 -317 -15
-24 -35 -53 -45 -64 -24 -29 -103 -182 -123 -240 -10 -27 -21 -57 -24 -65 -8
-22 -30 -113 -49 -205 -39 -183 -11 -542 53 -692 8 -17 14 -36 14 -42 0 -21
95 -197 154 -286 86 -128 287 -322 396 -381 19 -11 53 -31 75 -44 37 -23 78
-44 150 -75 70 -31 184 -63 265 -75 30 -4 84 -13 120 -19 91 -15 224 -13 295
4 33 8 73 14 89 15 15 0 49 6 75 14 25 8 73 22 106 32 33 10 69 24 80 31 23
15 35 17 35 4 0 -10 -154 -86 -260 -129 -75 -29 -140 -48 -215 -62 -22 -4 -53
-12 -68 -19 -37 -14 -378 -15 -431 0 -22 6 -72 14 -110 19 -39 4 -87 13 -106
20 -42 15 -108 40 -135 50 -23 9 -179 86 -210 103 -107 62 -138 84 -191 135
-7 7 -35 29 -61 49 -26 20 -57 46 -68 58 -125 137 -174 203 -236 320 -75 143
-87 168 -95 201 -3 16 -19 67 -34 114 -37 113 -55 247 -55 405 0 133 20 304
38 340 6 11 14 38 18 60 18 95 32 131 132 345 11 25 47 80 79 123 32 43 58 80
58 83 0 21 273 266 320 287 8 4 27 15 42 25 91 59 153 92 228 121 47 18 94 36
105 41 67 31 173 54 320 69 59 7 48 8 -75 9 -80 0 -152 -3 -160 -7z"/>
<path d="M1895 3313 c-27 -2 -52 -8 -55 -13 -3 -5 -37 -12 -75 -15 -38 -4 -80
-11 -93 -16 -13 -5 -34 -9 -47 -9 -13 0 -28 -6 -32 -14 -4 -8 -20 -17 -36 -20
-15 -2 -34 -12 -43 -20 -8 -9 -28 -16 -43 -16 -16 0 -41 -12 -61 -30 -18 -16
-41 -30 -49 -30 -9 0 -33 -15 -53 -33 -67 -59 -90 -77 -98 -77 -4 0 -10 -9
-13 -20 -3 -11 -10 -19 -15 -18 -13 4 -153 -139 -157 -160 -1 -9 -8 -16 -14
-15 -6 2 -13 -8 -17 -22 -3 -14 -10 -22 -15 -20 -5 3 -12 -7 -15 -22 -4 -15
-15 -36 -25 -47 -10 -10 -16 -22 -14 -26 3 -4 -4 -15 -15 -25 -18 -17 -43 -73
-39 -91 3 -20 -2 -35 -10 -30 -5 3 -11 -13 -14 -36 -3 -24 -10 -44 -16 -46 -5
-2 -7 -10 -4 -18 3 -8 -1 -21 -8 -30 -14 -17 -19 -157 -7 -170 14 -14 38 19
38 52 0 19 5 34 10 34 6 0 10 7 10 15 0 8 5 15 10 15 6 0 10 6 8 13 -4 21 66
150 85 155 9 2 17 9 17 14 0 6 11 19 25 30 14 11 25 26 25 34 0 8 9 22 20 31
11 10 20 21 20 25 0 12 32 41 70 65 19 12 41 31 48 42 7 12 19 21 27 21 8 0
20 9 27 20 7 11 20 20 30 20 9 0 20 5 23 10 4 6 28 21 53 34 26 13 61 31 77
40 17 9 38 16 48 16 9 0 17 4 17 9 0 5 9 7 19 4 13 -3 24 2 33 16 8 13 23 21
39 21 15 0 46 7 69 15 32 11 93 15 251 16 202 1 210 0 261 -24 70 -33 148 -57
148 -45 0 5 7 2 16 -6 8 -9 24 -16 34 -16 10 0 21 -4 24 -9 4 -5 27 -19 53
-32 55 -26 50 -23 176 -142 54 -50 108 -108 119 -129 11 -20 34 -46 49 -57 16
-12 29 -28 29 -36 0 -25 23 -65 37 -65 7 0 13 -7 13 -16 0 -9 12 -39 27 -68
42 -81 43 -84 43 -111 0 -14 9 -42 20 -62 18 -34 20 -57 20 -247 0 -162 -3
-213 -14 -225 -12 -15 -25 -63 -46 -175 -5 -27 -13 -52 -17 -55 -5 -3 -17 -25
-27 -48 -10 -23 -25 -44 -32 -47 -8 -3 -14 -12 -14 -19 0 -8 -7 -20 -15 -27
-8 -7 -15 -26 -15 -42 0 -18 -4 -27 -11 -23 -11 7 -49 -31 -49 -49 0 -20 -114
-136 -133 -136 -10 0 -16 -4 -12 -9 7 -12 -31 -34 -44 -27 -10 7 -84 -58 -81
-70 2 -5 -5 -12 -14 -16 -9 -4 -24 -13 -33 -18 -10 -6 -28 -14 -40 -19 -11 -6
-24 -15 -28 -20 -3 -6 -14 -11 -24 -11 -10 0 -26 -9 -36 -20 -10 -11 -28 -20
-41 -20 -13 0 -26 -4 -29 -10 -10 -16 42 -23 80 -10 20 7 50 9 66 6 19 -3 28
-2 24 4 -3 6 3 10 14 10 11 0 22 4 26 10 3 5 13 6 21 3 9 -3 20 0 24 7 4 7 21
14 37 15 59 4 60 4 43 15 -11 7 -7 10 17 10 39 0 65 9 57 21 -3 5 3 9 12 9 9
0 33 12 53 27 20 16 39 29 44 29 4 1 12 2 18 3 6 0 9 7 6 15 -4 10 5 16 28 20
23 5 35 13 39 29 3 12 27 35 56 52 27 16 50 32 50 36 0 3 22 29 49 57 27 28
52 60 56 72 4 11 16 31 28 44 12 13 27 30 32 38 6 7 20 26 33 42 13 17 20 37
17 47 -3 9 -1 20 5 24 5 3 22 31 36 60 14 30 29 57 35 60 5 4 9 19 9 35 0 16
7 50 15 75 9 24 16 66 17 92 0 27 7 60 14 75 10 19 15 74 16 185 2 129 -1 172
-17 234 -11 42 -25 82 -32 90 -6 8 -11 30 -11 49 0 19 -10 55 -21 80 -11 25
-21 53 -21 63 0 11 -9 21 -19 24 -12 3 -23 17 -26 33 -3 16 -13 34 -21 41 -8
6 -14 15 -14 20 0 5 -10 31 -22 59 -15 34 -29 52 -45 56 -13 4 -20 10 -17 15
3 5 1 9 -5 9 -6 0 -18 14 -26 30 -9 17 -27 36 -40 42 -14 6 -25 17 -25 25 0
16 -49 62 -67 63 -6 0 -14 9 -18 19 -3 10 -20 26 -38 35 -18 8 -28 16 -23 16
17 0 -37 50 -54 50 -10 0 -33 10 -51 23 -44 30 -99 57 -114 57 -7 0 -15 7 -19
15 -3 9 -18 15 -35 15 -17 0 -34 7 -39 16 -11 19 -64 34 -165 44 -43 4 -84 13
-92 20 -15 12 -240 21 -330 13z m309 -49 c101 -17 272 -67 326 -94 111 -57
224 -126 257 -156 14 -13 30 -24 34 -24 11 0 119 -106 119 -117 0 -4 13 -21
28 -38 40 -44 92 -112 92 -121 0 -4 6 -15 14 -23 41 -48 120 -221 133 -296 3
-16 10 -35 15 -41 9 -12 25 -118 35 -234 6 -74 -12 -271 -32 -345 -8 -27 -16
-65 -19 -83 -3 -18 -17 -58 -32 -90 -46 -102 -54 -120 -54 -129 0 -12 -133
-201 -169 -238 -63 -68 -140 -134 -206 -180 -38 -26 -79 -56 -90 -65 -22 -18
-64 -38 -140 -65 -27 -10 -54 -22 -60 -27 -13 -12 -57 -10 -50 2 3 6 15 10 26
10 10 0 19 4 19 10 0 5 11 12 25 16 14 3 25 10 25 15 0 5 13 15 29 21 68 30
237 194 305 297 54 80 146 270 146 300 0 11 5 32 12 48 29 72 43 336 24 483
-7 62 -54 216 -82 270 -7 14 -22 45 -34 70 -32 69 -44 87 -96 153 -140 177
-299 300 -469 364 -156 59 -310 93 -422 93 -117 0 -339 -40 -413 -75 -158 -74
-302 -161 -385 -233 -20 -17 -130 -145 -134 -155 -2 -6 -15 -23 -28 -37 -13
-14 -26 -34 -29 -45 -4 -10 -13 -25 -20 -33 -8 -7 -14 -20 -14 -28 0 -8 -4
-14 -10 -14 -10 0 -2 62 10 70 4 3 11 20 15 38 3 17 11 32 16 32 5 0 9 7 9 16
0 15 66 133 81 144 3 3 9 14 13 25 4 11 53 67 109 125 111 115 161 160 177
160 5 0 10 4 10 9 0 9 51 43 100 68 166 82 253 111 430 144 121 22 239 23 354
3z m-1347 -891 c-3 -10 -5 -4 -5 12 0 17 2 24 5 18 2 -7 2 -21 0 -30z m-30
-95 c-3 -7 -5 -2 -5 12 0 14 2 19 5 13 2 -7 2 -19 0 -25z"/>
<path d="M3190 2880 c0 -8 15 -46 34 -85 55 -115 60 -128 58 -165 -1 -25 1
-30 6 -17 7 17 9 17 19 -6 7 -14 10 -43 8 -64 -4 -31 -3 -34 4 -13 8 23 9 24
10 3 1 -12 6 -25 11 -28 6 -4 8 -21 4 -42 -4 -21 -3 -34 2 -30 5 3 14 -10 20
-29 6 -19 8 -34 4 -34 -4 0 -6 -32 -4 -72 4 -76 13 -104 15 -47 1 33 2 32 12
-11 5 -25 10 -63 10 -85 -1 -22 -1 -89 0 -150 0 -146 0 -138 -14 -232 -7 -46
-16 -83 -21 -83 -4 0 -8 -15 -9 -32 -1 -31 -1 -32 -9 -8 -9 28 -9 28 -15 -58
-4 -51 -15 -69 -16 -26 l-1 29 -9 -30 c-5 -16 -7 -36 -4 -43 7 -19 -5 -63 -16
-56 -5 3 -6 -1 -4 -9 3 -7 -1 -27 -10 -43 -8 -16 -15 -22 -16 -14 0 10 -3 8
-8 -5 -5 -11 -5 -22 -1 -25 12 -8 -26 -84 -77 -157 -13 -17 -23 -35 -23 -38 0
-6 -96 -133 -110 -145 -3 -3 -17 -21 -30 -40 -35 -53 -150 -160 -171 -160 -15
0 -148 -111 -157 -132 -2 -4 -11 -4 -20 -1 -9 3 -14 2 -10 -2 7 -7 -92 -75
-110 -75 -4 0 -29 -11 -56 -24 -27 -13 -57 -21 -67 -19 -13 4 -19 0 -19 -11 0
-15 -11 -20 -37 -17 -7 1 -13 -2 -13 -6 0 -5 -28 -15 -62 -22 -35 -7 -74 -17
-88 -23 -14 -6 -36 -10 -49 -9 -13 2 -21 -2 -17 -7 7 -12 -59 -23 -149 -24
-61 0 -65 -1 -30 -8 24 -4 -28 -7 -135 -7 -104 -1 -163 3 -145 7 23 6 13 8
-40 8 -76 1 -187 17 -216 32 -10 6 -35 10 -56 10 -21 0 -47 7 -57 15 -11 8
-32 15 -47 15 -15 0 -34 7 -43 15 -8 8 -20 15 -26 15 -10 0 -100 43 -220 106
-31 16 -65 38 -76 49 -12 11 -63 49 -113 84 -50 36 -91 68 -91 71 0 4 -25 32
-55 64 -30 31 -55 59 -55 62 0 3 -11 17 -25 32 -14 15 -23 33 -20 40 2 6 -2
12 -10 12 -8 0 -15 7 -15 16 0 8 -4 13 -8 10 -10 -6 -88 113 -84 129 1 7 -11
27 -28 43 -16 17 -30 40 -30 52 0 11 -9 31 -20 42 -12 13 -18 29 -14 40 7 24
-4 58 -21 58 -8 0 -11 8 -8 23 3 16 2 18 -5 9 -7 -10 -11 -5 -16 18 -3 18 -6
44 -6 58 0 14 -3 22 -7 19 -10 -10 -33 65 -27 86 3 10 1 23 -4 30 -16 20 -21
112 -22 362 0 237 6 329 20 320 4 -2 7 8 8 23 0 39 21 125 32 136 6 6 10 22
10 37 0 15 7 32 15 39 8 7 15 20 15 30 0 10 7 23 15 30 8 7 15 18 15 25 0 8 8
28 17 47 31 61 33 67 25 72 -17 10 -62 -42 -120 -139 -6 -11 -41 -78 -77 -150
-36 -71 -65 -126 -65 -120 0 5 -6 3 -12 -3 -10 -10 -10 -14 0 -21 10 -6 9 -14
-3 -37 -12 -24 -15 -25 -16 -9 0 17 -2 17 -10 -4 -6 -16 -6 -27 1 -31 6 -4 1
-28 -14 -66 -14 -34 -25 -80 -24 -103 0 -44 -11 -72 -13 -30 0 13 -7 -1 -14
-31 -17 -65 -18 -312 -3 -445 5 -49 10 -128 9 -175 0 -57 3 -78 9 -65 8 19 9
18 11 -5 1 -14 1 -35 0 -46 -1 -12 9 -43 23 -70 13 -26 22 -54 19 -62 -3 -8
-1 -17 6 -21 7 -4 13 -18 14 -29 1 -12 5 -22 10 -22 5 0 6 -15 3 -33 -3 -17
-3 -26 0 -19 5 10 9 9 20 -5 7 -10 14 -24 14 -31 0 -7 13 -40 29 -74 17 -34
27 -66 24 -71 -3 -6 -1 -7 6 -3 7 5 17 -6 27 -31 9 -21 34 -61 55 -90 21 -29
39 -57 39 -62 0 -6 6 -14 13 -18 8 -4 18 -16 23 -25 8 -14 98 -118 161 -185
13 -13 17 -23 10 -24 -7 0 -6 -3 3 -7 27 -12 74 -46 106 -77 76 -71 93 -85
120 -97 16 -7 40 -23 54 -36 14 -14 37 -29 53 -34 15 -6 27 -14 27 -19 0 -5 7
-9 16 -9 17 0 97 -41 102 -52 2 -5 12 -8 21 -8 10 0 34 -11 54 -24 19 -13 38
-22 41 -19 3 3 11 1 18 -4 7 -6 47 -20 88 -32 41 -13 84 -26 95 -31 40 -18
101 -30 150 -30 63 0 43 16 -33 26 -29 3 -55 10 -58 15 -3 5 -16 9 -29 9 -45
0 -210 62 -360 135 -82 41 -159 81 -170 89 -11 9 -58 43 -104 77 -89 65 -222
193 -281 269 -19 25 -37 47 -40 50 -25 21 -133 179 -165 240 -53 102 -49 96
-83 180 -60 148 -92 266 -112 410 -13 91 -12 473 0 540 6 30 15 78 19 107 5
28 14 66 20 85 6 18 20 62 31 98 23 74 24 76 76 187 36 79 60 101 49 45 -7
-33 -33 -127 -47 -167 -9 -28 -30 -261 -31 -350 -1 -58 20 -262 32 -315 5 -25
15 -65 21 -90 6 -25 15 -63 20 -85 13 -59 88 -229 139 -315 48 -80 158 -230
217 -294 19 -22 45 -52 58 -66 28 -33 251 -203 308 -235 123 -68 179 -95 235
-114 34 -11 72 -25 85 -30 53 -21 214 -60 308 -74 134 -20 470 -7 540 21 43
17 136 42 156 42 10 0 31 6 45 14 14 7 38 16 53 20 67 17 336 161 366 196 3 3
32 27 65 52 71 54 217 197 242 236 10 15 34 47 54 72 20 25 49 67 65 93 16 27
37 61 46 75 10 15 22 36 27 47 5 11 20 45 34 75 37 81 108 295 119 359 5 31
13 79 18 106 11 64 12 291 0 375 -14 113 -31 204 -40 225 -5 11 -12 39 -15 62
-4 24 -11 45 -16 49 -5 3 -9 15 -9 27 -1 12 -9 40 -20 62 -18 39 -18 61 1 50
5 -4 9 -13 9 -21 0 -8 3 -14 8 -14 4 0 18 -25 32 -55 14 -30 28 -55 33 -55 4
0 7 -6 7 -12 0 -7 7 -26 16 -43 24 -47 70 -164 88 -225 48 -164 58 -269 53
-565 -4 -258 -12 -320 -48 -387 -5 -10 -9 -25 -9 -33 0 -19 -37 -128 -56 -164
-8 -14 -14 -29 -14 -34 0 -8 -83 -188 -107 -232 -17 -29 -53 -76 -156 -203
-88 -107 -228 -245 -302 -295 -198 -136 -379 -237 -424 -237 -11 0 -37 -7 -58
-16 -76 -33 -113 -44 -231 -69 -35 -7 -66 -16 -69 -19 -13 -13 106 -5 147 9
23 8 61 15 84 16 22 0 35 3 28 6 -21 8 54 43 93 43 38 0 81 18 131 56 17 13
37 24 44 24 17 0 180 100 180 111 0 16 87 59 106 53 13 -4 15 -3 6 3 -10 7 -3
17 28 37 22 14 61 49 88 77 26 28 77 83 114 121 36 38 67 73 68 76 1 4 8 6 16
4 9 -2 14 6 14 21 0 24 34 65 42 50 3 -4 4 -3 2 2 -1 6 18 37 42 69 24 32 44
64 44 72 0 8 13 40 29 72 33 63 50 102 76 177 10 28 22 55 26 60 4 6 10 29 14
52 4 24 10 45 15 48 4 3 11 22 15 42 4 21 11 43 16 49 20 25 32 153 36 399 4
259 -2 390 -17 350 -6 -15 -9 -10 -13 25 -4 25 -7 68 -7 95 -1 38 -3 45 -10
30 -6 -14 -9 -15 -9 -5 -1 8 -4 26 -8 39 -4 16 -2 22 4 18 8 -5 7 5 0 30 -9
27 -13 32 -15 18 -3 -15 -7 -13 -18 13 -7 18 -10 40 -7 50 3 9 3 14 -2 10 -13
-12 -34 24 -31 52 2 14 1 19 -1 12 -4 -10 -9 -8 -20 8 -8 12 -13 24 -10 26 3
3 -2 14 -11 25 -9 11 -16 23 -16 27 1 4 -7 19 -17 34 -10 14 -19 29 -19 33 0
10 -74 129 -82 133 -5 2 -8 9 -8 15 -1 18 -90 104 -90 87z m97 -152 c-3 -8 -6
-5 -6 6 -1 11 2 17 5 13 3 -3 4 -12 1 -19z"/>
<path d="M3340 2380 c0 -5 5 -10 10 -10 6 0 10 5 10 10 0 6 -4 10 -10 10 -5 0
-10 -4 -10 -10z"/>
</g>
</svg>
